<svg id="Layer_1" data-name="Layer 1" xmlns="http://www.w3.org/2000/svg" viewBox="0 0 96 95.99"><defs><style>.cls-1{fill:#43a7ff;}.cls-2{fill:#f2f6fc;}.cls-3{fill:#cdd2e1;}.cls-4{fill:#c8e5ff;}.cls-5{fill:#f8fafd;}.cls-6{fill:#0e8cfb;}.cls-7{fill:#282932;}</style></defs><path class="cls-1" d="M74,6a4,4,0,0,0-4-4H6A4,4,0,0,0,2,6V18H74Z" transform="translate(0 0)"/><path class="cls-2" d="M2,18V54a4,4,0,0,0,4,4H70a4,4,0,0,0,4-4V18Z" transform="translate(0 0)"/><path class="cls-3" d="M66,26H10v8H66Z" transform="translate(0 0)"/><path class="cls-3" d="M66,42H10v8H66Z" transform="translate(0 0)"/><path class="cls-4" d="M60,80A22,22,0,1,0,38,58,22,22,0,0,0,60,80Z" transform="translate(0 0)"/><path class="cls-3" d="M81,81l3-3,8.8,8.8a4.35,4.35,0,0,1,0,6,4.35,4.35,0,0,1-6,0L78,84Z" transform="translate(0 0)"/><path class="cls-5" d="M60,74A16,16,0,1,0,44,58,16,16,0,0,0,60,74Z" transform="translate(0 0)"/><path class="cls-6" d="M74,6a4,4,0,0,0-4-4H32V18H74Z" transform="translate(0 0)"/><path class="cls-7" d="M60,82V78A19.75,19.75,0,0,0,80,58a20,20,0,0,0-40,0v2H6a6,6,0,0,1-6-6V24H4V54a2,2,0,0,0,2,2H36.08A24,24,0,0,1,84,58,23.74,23.74,0,0,1,60,82Z" transform="translate(0 0)"/><path class="cls-7" d="M76,34H72V6a2,2,0,0,0-2-2H6A2,2,0,0,0,4,6V16H68v4H0V6A6,6,0,0,1,6,0H70a6,6,0,0,1,6,6Z" transform="translate(0 0)"/><rect class="cls-7" x="8" y="8" width="4" height="4"/><rect class="cls-7" x="16" y="8" width="4" height="4"/><rect class="cls-7" x="24" y="8" width="4" height="4"/><path class="cls-7" d="M76,58H72A11.87,11.87,0,0,0,60,46V42A15.83,15.83,0,0,1,76,58Z" transform="translate(0 0)"/><path class="cls-7" d="M89.73,96a6.1,6.1,0,0,1-4.34-1.78L75.17,84,84,75.17,94.21,85.39a6.33,6.33,0,0,1,0,8.82l-.08.08A6.63,6.63,0,0,1,89.73,96Zm-8.9-12,7.38,7.39a2.36,2.36,0,0,0,3.21,0,2.37,2.37,0,0,0,0-3.14L84,80.83Z" transform="translate(0 0)"/><rect class="cls-7" x="76" y="72.34" width="4" height="11.31" transform="translate(-32.31 78) rotate(-45)"/><rect class="cls-7" x="36" y="78" width="20" height="4"/><rect class="cls-7" x="28" y="78" width="4" height="4"/><rect class="cls-7" x="28" y="68" width="28" height="4"/><rect class="cls-7" x="20" y="68" width="4" height="4"/><polygon class="cls-7" points="34 36 8 36 8 24 68 24 68 30 64 30 64 28 12 28 12 32 34 32 34 36"/><polygon class="cls-7" points="34 52 8 52 8 40 34 40 34 44 12 44 12 48 34 48 34 52"/></svg>